<svg id="Layer_1" data-name="Layer 1" xmlns="http://www.w3.org/2000/svg" viewBox="0 0 706.3 391.11"><defs><style>.cls-1{fill:#17763b;}.cls-2{fill:#ffe302;}.cls-3{font-size:200px;font-family:BebasNeue-Regular, Bebas Neue;}.cls-3,.cls-4{fill:#112baf;}</style></defs><title>logo_toolbox</title><rect class="cls-1" width="699.3" height="391.11" rx="64.86"/><path class="cls-2" d="M61.31,29.76H87.83c19.48,0,32.21,12.83,32.21,32.6,0,19.5-12.35,34.28-32.82,34.28H61.31ZM75.77,85H86.62c12.82,0,18.49-9.54,18.49-22.56,0-10.93-5.31-21-18.41-21H75.77Z" transform="translate(-0.7 -8.11)"/><path class="cls-2" d="M171.75,83.66a113.35,113.35,0,0,0,.68,13H159.15a20.33,20.33,0,0,1-.7-4.91c-1.82,2.82-5.24,6.07-14.12,6.07-12.1,0-17.21-8-17.21-15.75,0-11.43,9.18-16.71,23.91-16.71h7.16V62.27c0-3.57-1.28-7.08-7.73-7.08-5.87,0-7.15,2.5-7.79,6.13H129.45c.75-8.92,6.27-16.14,21.53-16.06,13.45.09,20.77,5.34,20.77,17.29ZM158.2,73.78h-5.66c-8.38,0-11.48,2.56-11.48,7.4,0,3.63,2.23,6.69,7.22,6.69,8.84,0,9.92-6.14,9.92-12.77Z" transform="translate(-0.7 -8.11)"/><path class="cls-2" d="M178.48,46.43h7.74V32.83h13.9v13.6H210V56.88h-9.84V81.66c0,3.81,1.17,5.29,5.31,5.29a24.35,24.35,0,0,0,3.16-.16v9.57c-2.75.93-6.53,1-9.34,1-9.79,0-13-5.24-13-14V56.88h-7.74Z" transform="translate(-0.7 -8.11)"/><path class="cls-2" d="M259.63,83.66a113.35,113.35,0,0,0,.68,13H247a20.33,20.33,0,0,1-.7-4.91c-1.82,2.82-5.24,6.07-14.12,6.07-12.1,0-17.21-8-17.21-15.75,0-11.43,9.19-16.71,23.91-16.71h7.16V62.27c0-3.57-1.28-7.08-7.73-7.08-5.87,0-7.15,2.5-7.79,6.13H217.33c.75-8.92,6.27-16.14,21.53-16.06,13.45.09,20.77,5.34,20.77,17.29Zm-13.55-9.88h-5.66c-8.38,0-11.48,2.56-11.48,7.4,0,3.63,2.23,6.69,7.22,6.69,8.84,0,9.92-6.14,9.92-12.77Z" transform="translate(-0.7 -8.11)"/><path class="cls-2" d="M307.2,77c1.53,6.72,6.34,9.66,14.08,9.66s11-3,11-7.94c0-5.44-3.23-7.81-14.67-10.47C299.45,64,295,57.39,295,48.36c0-11.65,8.72-19.57,24.55-19.57,17.75,0,24.83,9.55,25.78,19.33H330.71c-.69-4.12-3-8.59-11.59-8.59-5.87,0-9.41,2.43-9.41,7.18s2.84,6.53,13.64,9C342.8,60.33,347.07,67.57,347.07,77c0,12.21-9.24,20.58-26.92,20.58-17,0-25.91-8.35-27.52-20.55Z" transform="translate(-0.7 -8.11)"/><path class="cls-2" d="M401.14,80.41c-1.73,8.37-7.62,17.39-22.58,17.39C362.93,97.8,354.9,87,354.9,71.9c0-14.83,9-26.64,24.33-26.64,16.93,0,21.63,12.15,21.91,17.83H387.56c-.85-4.09-3.17-7-8.6-7-6.35,0-9.95,5.57-9.95,15.31C369,82.14,372.82,87,378.9,87c4.78,0,7.34-2.82,8.58-6.6Z" transform="translate(-0.7 -8.11)"/><path class="cls-2" d="M410.14,25.83h13.91v12.4H410.14Zm0,20.6h13.91V96.64H410.14Z" transform="translate(-0.7 -8.11)"/><path class="cls-2" d="M447.58,74.51c0,6.27,3.16,12.41,10.08,12.41,5.79,0,7.44-2.32,8.76-5.36h13.92c-1.79,6.15-7.27,16.24-23,16.24-16.54,0-23.71-12.37-23.71-25.54,0-15.75,8.08-27,24.2-27,17.25,0,23.11,12.48,23.11,25a31.43,31.43,0,0,1-.18,4.24ZM467,66c-.1-5.85-2.43-10.77-9.21-10.77s-9.34,4.6-9.89,10.77Z" transform="translate(-0.7 -8.11)"/><path class="cls-2" d="M490.74,59.08c0-4.27,0-8.94-.1-12.65H504.1a60.53,60.53,0,0,1,.54,6.4c1.71-3.16,5.77-7.57,14.56-7.57,10.09,0,16.64,6.82,16.64,19.44V96.64h-13.9V66.24c0-5.64-1.88-9.73-8-9.73-5.9,0-9.28,3.28-9.28,12.15v28h-13.9Z" transform="translate(-0.7 -8.11)"/><path class="cls-2" d="M591.64,80.41C589.91,88.78,584,97.8,569.06,97.8,553.44,97.8,545.4,87,545.4,71.9c0-14.83,9.05-26.64,24.33-26.64,16.93,0,21.63,12.15,21.91,17.83H578.07c-.86-4.09-3.18-7-8.61-7-6.35,0-10,5.57-10,15.31,0,10.69,3.81,15.56,9.89,15.56,4.78,0,7.34-2.82,8.58-6.6Z" transform="translate(-0.7 -8.11)"/><path class="cls-2" d="M612,74.51c0,6.27,3.16,12.41,10.08,12.41,5.79,0,7.44-2.32,8.76-5.36h13.91c-1.78,6.15-7.26,16.24-23,16.24C605.17,97.8,598,85.43,598,72.26c0-15.75,8.08-27,24.2-27,17.25,0,23.11,12.48,23.11,25a31.43,31.43,0,0,1-.18,4.24ZM631.39,66c-.1-5.85-2.44-10.77-9.21-10.77s-9.34,4.6-9.9,10.77Z" transform="translate(-0.7 -8.11)"/><text class="cls-3" transform="translate(123.3 343.17)">oolbo</text><path class="cls-4" d="M684,322.88c0,16.87-11.81,30.4-27.47,30.4a28.07,28.07,0,0,1-14-3.84c-13.19-7.51-20-24-17-38.81,1.77-8.46-2-9.61-7.78-12.89L521.4,242.8s11.55-18.64,24.1-11.49c7.69,4.4,38.63,22,65.29,37.21l6.69-3.79c5.78-3.28,9.55-4.42,7.81-12.88-3.06-14.83,3.84-31.3,17.05-38.77a28.16,28.16,0,0,1,13.93-3.8c15.71,0,27.48,13.58,27.48,30.41,0,12.65-6.69,25.24-17.75,31.79s-18.77,1.44-29.74,7.71l-3.44,2,3.77,2.16c10.95,6.31,18.7,1.25,29.72,7.8S684,310.26,684,322.88Zm-44.82-72.12c3.33,8.18,12.74,11,21,6.35s12.27-15.14,9-23.32-12.75-11-21-6.35S635.85,242.58,639.18,250.76Zm-24.75,29c0-3.31-2.28-6-5.09-6s-5.09,2.69-5.09,6,2.29,6,5.09,6S614.43,283.07,614.43,279.76Zm46,25.7c-8.25-4.7-17.68-1.88-21,6.29s.68,18.66,8.92,23.36,17.68,1.89,21-6.29S668.72,310.16,660.47,305.46ZM521,319.37s11.5,18.67,24.06,11.56l57.61-32.72L580.5,285.57Z" transform="translate(-0.7 -8.11)"/><path class="cls-4" d="M173.67,172.09s-9.06-10.35-25.33-8.32c-7.52,0-32.08,3.41-32.08,10L115,191.56H80.72L80,178.76c0-21.88-45.39-24.68-75.14-.86,0,0,15.68-21.44,47.26-35.91,10.84-5,32.25-15.14,45.61-17,22.47-3.1,36.93,9.07,53.94,6.4,20.13-3.44,22-10,22-10H199V172.1ZM80.38,329.86c-.09,5.52,2.18,11.37,6.62,14.62,9.36,6.87,12.41,5.92,22.09,0,4.69-2.87,5.8-9.6,5.91-15.35V207.77l-34.62-.08Z" transform="translate(-0.7 -8.11)"/></svg>